HIERARCHY
ROOT hip
{
	OFFSET 0.000000 0.000000 0.000000 
	CHANNELS 6 Xposition Yposition Zposition Xrotation Zrotation Yrotation
	JOINT abdomen
	{
		OFFSET 0.000000 3.402643 0.000000 
		CHANNELS 3 Xrotation Zrotation Yrotation
		JOINT chest
		{
			OFFSET 0.000000 8.438565 -0.680529 
			CHANNELS 3 Xrotation Zrotation Yrotation
			JOINT neck
			{
				OFFSET 0.000000 10.207942 -0.272212 
				CHANNELS 3 Xrotation Zrotation Yrotation
				JOINT head
				{
					OFFSET 0.000000 3.130431 0.000000 
					CHANNELS 3 Xrotation Zrotation Yrotation
					End Site
					{
						OFFSET 0.000000 3.130435 0.000000 
					}
				}
			}
			JOINT lCollar
			{
				OFFSET 3.470700 6.669187 -0.816635 
				CHANNELS 3 Yrotation Zrotation Xrotation
				JOINT lShldr
				{
					OFFSET 3.198488 0.000000 0.000000 
					CHANNELS 3 Zrotation Yrotation Xrotation
					JOINT lForeArm
					{
						OFFSET 10.139888 0.000000 0.000000 
						CHANNELS 3 Yrotation Zrotation Xrotation
						JOINT lHand
						{
							OFFSET 8.370511 0.000000 0.000000 
							CHANNELS 3 Zrotation Yrotation Xrotation
							End Site
							{
								OFFSET 4.083176 0.000000 0.000000 
							}
						}
					}
				}
			}
			JOINT rCollar
			{
				OFFSET -3.470700 6.669187 -0.816635 
				CHANNELS 3 Yrotation Zrotation Xrotation
				JOINT rShldr
				{
					OFFSET -3.198488 0.000000 0.000000 
					CHANNELS 3 Zrotation Yrotation Xrotation
					JOINT rForeArm
					{
						OFFSET -10.139888 0.000000 0.000000 
						CHANNELS 3 Yrotation Zrotation Xrotation
						JOINT rHand
						{
							OFFSET -8.370511 0.000000 0.000000 
							CHANNELS 3 Zrotation Yrotation Xrotation
							End Site
							{
								OFFSET -4.083176 0.000000 0.000000 
							}
						}
					}
				}
			}
		}
	}
	JOINT lThigh
	{
		OFFSET 5.308129 -1.633274 1.361059 
		CHANNELS 3 Xrotation Zrotation Yrotation
		JOINT lShin
		{
			OFFSET -2.041588 -20.007561 0.000000 
			CHANNELS 3 Xrotation Zrotation Yrotation
			JOINT lFoot
			{
				OFFSET 0.000000 -19.190928 -1.224953 
				CHANNELS 3 Xrotation Yrotation Zrotation
				End Site
				{
					OFFSET 0.000000 -2.449906 4.627600 
				}
			}
		}
	}
	JOINT rThigh
	{
		OFFSET -5.308129 -1.633274 1.361059 
		CHANNELS 3 Xrotation Zrotation Yrotation
		JOINT rShin
		{
			OFFSET 2.041588 -20.007561 0.000000 
			CHANNELS 3 Xrotation Zrotation Yrotation
			JOINT rFoot
			{
				OFFSET 0.000000 -19.190928 -1.224953 
				CHANNELS 3 Xrotation Yrotation Zrotation
				End Site
				{
					OFFSET 0.000000 -2.449906 4.627600 
				}
			}
		}
	}
}
MOTION
Frames: 19
Frame Time: 0.033333
-30.887783 8.614829 -0.805744 2.685547 -32.871090 80.341797 0.000000 0.000000 0.000000 37.080074 4.042969 1.562500 -8.750000 -1.289063 -3.916235 -29.296873 -3.486328 -1.025985 6.005860 18.134768 14.752817 -98.984375 -75.820313 67.822563 -6.503906 2.939453 17.138670 -14.296875 -7.636718 0.292969 -4.501953 -18.164063 16.230471 -46.005856 106.533203 -97.178139 2.343750 -5.585938 19.482424 -19.345703 -1.669922 -1.630859 -32.382278 3.701137 22.593575 -3.954819 -2.319942 -15.044908 5.410769 0.066899 -5.374928 -50.657749 -6.970086 -19.957315 45.341522 0.387811 -23.263529 1.328978 6.295297 -12.369402 
-30.543545 8.658717 -1.017994 2.890625 -33.173828 80.053253 0.000000 0.000000 0.000000 37.050781 4.355469 1.542969 -8.710938 -1.425781 -3.818602 -29.404295 -3.359375 -0.986901 6.083984 17.851563 14.489191 -91.474609 -75.175781 56.181965 -6.992188 2.626953 17.089846 -11.562499 -6.943359 -0.059774 -4.462891 -18.544924 16.044922 -42.285164 106.552734 -91.699219 3.339844 -5.585938 19.991186 -18.974611 -1.572266 -1.640625 -31.954983 3.305889 23.065838 -3.974176 -2.329442 -15.326813 4.869380 0.067438 -5.383943 -51.850433 -6.521420 -19.162033 44.448307 0.447594 -17.584118 0.648527 6.281271 -12.312166 
-29.756208 8.692467 -1.186512 3.115234 -33.662106 79.794922 0.000000 0.000000 0.000000 36.757813 4.531250 1.446084 -8.505859 -1.484375 -4.209237 -29.414063 -2.841797 -0.839844 6.230469 17.714844 13.730471 -85.947266 -73.896484 47.949219 -6.914063 2.597656 17.177736 -8.505859 -6.152344 -0.411201 -4.384766 -18.945313 15.384029 -40.908211 106.972656 -88.769531 4.843750 -5.712891 21.015625 -21.259766 -2.226563 -1.562500 -31.760902 2.984092 23.538849 -3.945716 -2.341024 -15.581579 4.098620 0.110507 -5.670948 -52.275440 -5.869226 -17.850540 40.743324 0.726587 -11.482306 0.228972 6.001072 -9.418346 
-29.184374 8.711289 -1.313627 3.203125 -34.081779 79.574692 0.000000 0.000000 0.000000 36.601566 4.599609 1.514455 -8.251953 -1.425781 -4.834227 -29.326172 -2.314453 -0.683594 6.201172 17.685547 13.183592 -82.060539 -72.939453 41.973087 -6.093750 2.861328 17.294436 -6.699219 -5.683594 -0.585938 -4.365234 -19.199219 14.853515 -40.546883 107.207031 -87.714844 7.529296 -5.673828 22.373049 -21.494141 -2.285156 -1.552734 -31.418703 2.798738 23.804956 -3.976426 -2.341385 -15.755915 3.504776 0.144974 -5.648885 -51.384289 -5.009325 -18.456707 33.877876 1.117360 -6.547220 1.010992 5.845298 -7.624866 
-28.823233 8.725374 -1.397735 3.242188 -34.375000 79.467148 0.000000 0.000000 0.000000 36.689449 4.599609 1.591797 -8.115233 -1.308594 -5.488504 -29.199219 -1.845703 -0.546875 6.103516 17.734375 13.063433 -79.199219 -72.656250 38.593750 -4.716797 3.339844 17.343180 -6.767578 -5.703125 -0.586908 -4.414062 -19.267578 14.641895 -39.843754 107.050781 -86.738281 10.429688 -5.458984 23.575148 -20.478516 -1.992187 -1.591797 -30.930847 2.652436 23.913513 -3.948410 -2.342695 -15.425043 2.509787 0.213537 -6.138982 -48.597580 -3.650023 -19.574898 23.551384 1.601164 -2.353138 2.600900 5.803257 -6.363080 
-28.241648 8.716057 -1.423617 3.134765 -34.755859 79.658203 0.000000 0.000000 0.000000 36.542969 4.560547 1.709761 -7.890625 -1.054688 -6.181820 -29.150391 -1.484375 -0.439706 5.927735 18.007813 12.702058 -77.939453 -72.275391 36.904762 -3.056641 3.720703 17.177734 -6.396485 -5.605469 -0.625000 -4.492187 -19.150391 14.095000 -40.742184 107.167969 -87.021927 12.236328 -5.507813 24.893515 -22.177734 -2.480469 -1.533626 -30.623253 2.538384 23.686184 -3.963501 -2.309011 -15.093876 1.931884 0.284224 -6.269396 -44.027832 -1.365230 -21.780241 8.558332 1.951480 0.973077 7.892570 5.865474 -4.142774 
-27.626385 8.756845 -1.402896 3.457031 -34.316402 80.253906 0.000000 0.000000 0.000000 38.037109 4.033203 1.308594 -8.789063 -0.458984 -7.041016 -29.072266 -1.123047 -0.341797 5.996094 18.320314 15.546871 -73.789063 -76.220703 32.256142 -1.572266 4.052734 16.874310 -6.806641 -5.712891 -0.585938 -5.156250 -18.242188 16.848759 -29.863277 104.785156 -74.629234 13.984375 -5.458984 25.899364 -22.460938 -2.558594 -1.504341 -29.513336 2.017287 21.611008 -3.966571 -2.312263 -15.200840 1.920508 0.213468 -5.796982 -39.924042 -0.036626 -22.856920 -3.525398 1.962092 3.122213 10.860689 5.586338 -0.301870 
-27.008615 8.639985 -1.278269 3.017578 -34.902344 80.687767 0.000000 0.000000 0.000000 36.777340 4.023438 1.669922 -7.949219 -0.224609 -7.558594 -29.033205 -0.908203 -0.263672 5.576172 18.779297 13.248807 -77.304688 -73.330078 35.332031 -0.703125 4.296875 16.552004 -8.769531 -6.220703 -0.381916 -4.902344 -18.212889 14.270631 -39.912113 106.757813 -84.628906 14.873046 -5.566406 26.718752 -23.359375 -2.812500 -1.464844 -29.271793 2.194551 22.192661 -3.955349 -2.330209 -15.415448 1.228562 0.191022 -5.484320 -41.696426 0.440283 -24.943804 -3.648600 2.028634 5.741618 5.968966 5.140107 2.161343 
-26.144302 8.532580 -1.105799 2.773437 -35.019535 81.591797 0.000000 0.000000 0.000000 36.220703 4.082031 1.582726 -7.578125 -0.166016 -8.261745 -28.984375 -0.566406 -0.175782 5.322266 18.935547 12.359485 -79.160156 -72.236328 37.021484 -0.527344 4.326172 16.357420 -11.484376 -6.933594 -0.068359 -4.873047 -18.164063 13.215937 -43.632816 107.939453 -88.056641 14.921875 -5.712650 26.867111 -23.037107 -2.724609 -1.494603 -28.589632 2.107300 21.902357 -3.967624 -2.332779 -15.942715 0.744941 0.258628 -5.863033 -42.426670 0.744195 -28.573141 -3.767503 2.126354 9.102441 0.129579 4.770391 2.972393 
-25.461567 8.423641 -0.879804 2.744141 -34.707031 82.533501 0.000000 0.000000 0.000000 36.181644 3.916016 1.475276 -7.529296 -0.107422 -8.955096 -28.789063 -0.371094 -0.117188 5.107422 19.042967 12.418689 -81.250000 -72.431641 39.072727 -0.693359 4.218750 16.308403 -13.115233 -7.343750 0.125705 -5.029297 -17.949221 13.186604 -44.462891 108.369141 -88.789566 14.091797 -5.703125 26.329096 -23.085939 -2.734375 -1.474609 -28.683611 2.358766 21.908791 -1.360788 -2.497938 -16.647635 -0.825172 0.340184 -5.994560 -42.231842 0.734480 -31.541752 -3.831553 2.200490 11.528859 -4.246831 4.504506 4.316398 
-25.196045 8.284928 -0.612240 2.695313 -34.355469 83.510117 0.000000 0.000000 0.000000 35.937496 3.896484 1.484375 -7.373047 -0.292969 -9.824219 -28.583984 -0.029297 -0.009766 4.921875 19.023436 12.138671 -84.882813 -72.216797 43.047340 -1.132813 3.945313 16.376955 -14.062501 -7.578125 0.253906 -5.097656 -17.910156 12.942455 -46.113281 109.121094 -90.469292 12.304688 -5.644531 25.087891 -22.519531 -2.578125 -1.513672 -29.934715 3.228422 21.926598 3.984919 -2.782965 -17.635729 -3.646793 0.388689 -5.515211 -41.470257 0.793032 -32.770908 -3.886549 2.225432 12.736999 -5.185724 4.616348 2.664457 
-24.261082 8.161621 -0.338519 2.558594 -34.101559 84.423828 0.000000 0.000000 0.000000 35.634762 4.189453 1.660156 -7.236329 -0.673828 -10.410156 -28.535156 0.019531 0.000000 4.804687 18.613281 11.894531 -89.062500 -71.953125 47.803215 -2.011719 3.505859 16.513075 -14.326172 -7.646485 0.291669 -5.097656 -18.085938 12.805765 -47.490234 109.697266 -91.924400 9.824219 -5.498047 23.487263 -21.972656 -2.421875 -1.533203 -30.471359 3.726081 22.345125 7.501620 -2.901169 -18.178694 -5.199712 0.347283 -4.483367 -40.765804 1.448611 -35.642982 -3.945243 2.284045 14.656465 -3.837535 5.237784 -2.497416 
-23.525860 8.099945 -0.088899 2.226563 -33.828129 85.053154 0.000000 0.000000 0.000000 35.625004 4.882813 1.807472 -7.304687 -1.298828 -10.283424 -28.574219 -0.195313 -0.058594 5.156250 17.978516 11.396484 -93.798828 -71.318359 53.027340 -3.398438 3.056641 16.708986 -11.806641 -7.011718 -0.030487 -4.775391 -18.710939 12.568359 -48.525391 110.117188 -92.676376 7.050782 -5.322266 21.768482 -20.751953 -2.070312 -1.582031 -30.585257 4.453217 21.515293 10.025268 -2.912161 -17.940510 -6.410200 0.431119 -4.620783 -40.181263 2.082720 -38.349728 -3.969341 2.299425 15.338375 -0.951399 5.650553 -5.298285 
-22.761484 8.084679 0.123668 1.826172 -33.652344 85.244141 0.000000 0.000000 0.000000 35.732418 5.566407 1.933594 -7.500000 -1.708984 -9.463182 -28.574219 -0.556641 -0.166016 5.712890 17.158203 11.435548 -97.968750 -70.937508 57.949223 -5.253906 2.675781 16.903843 -9.687500 -6.464844 -0.274537 -4.296875 -19.150614 12.922965 -48.193359 109.902344 -90.800781 4.150391 -5.322266 20.235281 -19.296875 -1.660156 -1.631141 -30.493748 5.231726 20.284204 11.890791 -2.862076 -16.987419 -7.159115 0.475069 -4.973433 -39.685970 2.373388 -38.670498 -3.921511 2.260491 14.111391 2.599882 5.761479 -5.402768 
-21.746099 8.083282 0.328208 1.357422 -33.535156 84.970703 0.000000 0.000000 0.000000 35.664063 5.830078 2.119141 -7.480469 -1.582031 -8.408202 -28.300781 -0.810547 -0.244141 6.269532 16.513672 11.325350 -101.357422 -70.039063 62.070900 -7.216797 2.324219 17.011717 -8.789063 -6.230468 -0.380859 -3.886719 -19.160158 12.923127 -48.652348 110.078125 -88.837891 1.923828 -5.537110 19.170864 -17.529297 -1.152344 -1.670116 -30.539631 6.294324 19.257458 14.088326 -2.816738 -15.810596 -7.957044 0.545562 -5.144281 -39.087677 2.883140 -37.597603 -3.882372 2.221569 12.835000 5.440750 5.835893 -5.191975 
-21.370985 8.109015 0.547884 0.869141 -33.300781 84.604012 0.000000 0.000000 0.000000 35.869141 5.742188 2.051758 -7.568360 -0.947266 -7.050782 -27.285158 -1.171875 -0.351563 7.041016 16.074219 11.813702 -104.970703 -69.833984 66.660164 -8.662110 2.294922 17.197266 -9.599609 -6.445312 -0.283203 -3.779297 -18.701174 13.486329 -48.037113 109.736328 -85.722656 0.419922 -5.771485 18.565435 -18.281252 -1.367188 -1.650391 -30.649677 7.555732 18.054981 16.571505 -2.758398 -14.756720 -8.469096 0.698099 -6.637455 -38.070137 3.704187 -37.133572 -3.886552 2.225427 12.971634 6.219440 5.946167 -5.920150 
-20.546190 8.139056 0.796571 0.341797 -33.037086 84.340385 0.000000 0.000000 0.000000 35.908199 5.498047 1.875000 -7.412109 -0.087891 -5.703140 -25.507813 -1.875000 -0.556641 7.939453 15.888673 12.089844 -108.593750 -69.306641 71.806641 -9.296876 3.173828 17.832031 -14.658202 -7.734375 0.340484 -3.916016 -18.105469 13.762799 -49.296875 109.726563 -86.289642 0.917969 -5.859375 18.956076 -18.837891 -1.523438 -1.640885 -31.246038 9.049852 18.245049 20.181200 -2.657338 -14.473908 -8.385184 0.729043 -6.815096 -36.821957 4.777848 -37.778259 -3.924547 2.244920 13.994945 5.684714 6.007191 -6.931904 
-19.515638 8.172177 1.074769 -0.273438 -32.919922 84.335938 0.000000 0.000000 0.000000 35.566406 5.439453 1.582957 -6.982422 0.468750 -4.824132 -23.017576 -2.314453 -0.693754 8.896483 15.712892 11.845702 -110.976563 -68.105469 75.410156 -9.248046 4.531250 18.934772 -17.509768 -8.417969 0.742187 -4.140625 -17.792967 13.515625 -52.822262 110.244133 -91.074821 2.617188 -6.025391 20.087893 -20.126951 -1.894531 -1.601884 -33.177734 11.059971 18.447670 25.449646 -2.492573 -15.273730 -6.999401 0.763713 -7.941534 -35.617588 5.736335 -37.919872 -3.931508 2.250931 14.443806 4.717061 6.042705 -7.623625 
-18.519495 8.237830 1.359679 -0.761719 -32.861332 84.619141 0.000000 0.000000 0.000000 35.488281 5.605469 1.054687 -6.914062 0.546875 -4.296782 -20.712893 -2.568359 -0.751953 9.658202 15.244141 12.412108 -112.421875 -67.900391 75.615952 -8.789062 5.458984 19.940475 -11.591798 -6.953125 -0.048828 -4.589844 -17.607422 14.329125 -55.283207 109.541016 -96.337891 5.253907 -6.054688 21.680716 -22.246092 -2.500000 -1.523862 -35.935978 13.094557 18.866684 31.309834 -2.185674 -16.594013 -3.934659 0.751677 -8.975250 -34.517677 6.427841 -38.325947 -3.950156 2.260854 14.715931 3.602307 6.053496 -7.919563 
